<?xml version="1.0" encoding="UTF-8"?><svg viewBox="0 0 100 100" xmlns="http://www.w3.org/2000/svg"><path d="m82.84 95.72c0 0.29-0.16 0.57-0.42 0.71s-0.58 0.12-0.83-0.03c-5.59-3.68-28.13-18.5-31.59-20.77-0.27-0.17-0.62-0.17-0.89-0-3.45 2.27-25.99 17.09-31.59 20.77-0.25 0.16-0.56 0.17-0.83 0.03-0.26-0.14-0.42-0.41-0.42-0.71v-88.22c-0-1.06 0.42-2.08 1.17-2.83s1.76-1.17 2.83-1.17h58.58c1.06 0 2.08 0.42 2.83 1.17s1.17 1.77 1.17 2.83v88.22z" fill="#0070ff"/><path d="m56.91 29.03c-3.74 9.24-7.49 18.49-11.48 27.61-0.96 2.2-4.15 0.54-3.26-1.69 3.67-9.28 7.51-18.48 11.52-27.59 0.94-2.14 4.14-0.53 3.23 1.67zm14.3 13.37-11.6-7.17c-0.58-0.36-1.33-0.86-1.47-1.7-0.33-2.01 2.02-2.56 3.23-1.84l17.29 10.72-17.29 10.72c-1.21 0.75-3.57 0.17-3.24-1.83 0.13-0.84 0.88-1.34 1.47-1.71l11.6-7.17zm-43.34-0 11.6 7.17c0.58 0.36 1.33 0.86 1.47 1.7 0.33 2.01-2.02 2.59-3.23 1.84l-17.28-10.72 17.28-10.72c1.21-0.72 3.57-0.17 3.24 1.84-0.13 0.84-0.89 1.34-1.47 1.7l-11.6 7.17z" fill="#fff"/></svg>
